<svg width="22" height="16" viewBox="0 0 22 16" fill="none" xmlns="http://www.w3.org/2000/svg">
    <path
        d="M10.1232 14.463C10.0205 14.6684 9.87202 14.8297 9.67769 14.947C9.48335 15.0644 9.27619 15.123 9.05619 15.123H2.19219C1.46619 15.123 0.918021 14.9342 0.547687 14.5565C0.177354 14.1789 -0.0078125 13.605 -0.0078125 12.835V3.06705C-0.0078125 2.51705 0.0636875 2.07705 0.206687 1.74705C0.349687 1.41705 0.580688 1.17321 0.899687 1.01555C1.21869 0.857881 1.64952 0.779047 2.19219 0.779047H19.7922C20.5402 0.779047 21.0939 0.971547 21.4532 1.35655C21.8125 1.74155 21.9922 2.31171 21.9922 3.06705V12.835C21.9922 13.5464 21.8015 14.1037 21.4202 14.507C21.0389 14.9104 20.4962 15.1157 19.7922 15.123H12.8622C12.6202 15.123 12.3984 15.057 12.1967 14.925C11.995 14.793 11.8465 14.617 11.7512 14.397L10.9702 12.659L10.1232 14.463ZM11.1682 12.23C11.1462 12.2667 11.1187 12.2942 11.0857 12.3125C11.0527 12.3309 11.0142 12.34 10.9702 12.34C10.9262 12.34 10.8859 12.329 10.8492 12.307C10.8125 12.285 10.7869 12.2594 10.7722 12.23L10.9702 12.659L11.1682 12.23ZM9.06719 13.715C9.06719 13.715 9.06352 13.715 9.05619 13.715H9.06719ZM19.7922 13.715C20.1002 13.715 20.3092 13.6527 20.4192 13.528C20.5292 13.4034 20.5842 13.1724 20.5842 12.835V3.06705C20.5842 2.80305 20.5659 2.61238 20.5292 2.49505C20.4925 2.37771 20.421 2.29705 20.3147 2.25305C20.2084 2.20905 20.0342 2.18705 19.7922 2.18705H2.19219C1.89885 2.18705 1.71185 2.19805 1.63119 2.22005C1.52119 2.24938 1.45152 2.32638 1.42219 2.45105C1.40752 2.53905 1.40019 2.74438 1.40019 3.06705V12.835C1.40019 13.099 1.41852 13.2915 1.45519 13.4125C1.49185 13.5335 1.56519 13.6142 1.67519 13.6545C1.78519 13.6949 1.95752 13.715 2.19219 13.715H8.92419L9.89219 11.636C9.98752 11.4234 10.1324 11.2547 10.3267 11.13C10.521 11.0054 10.7337 10.943 10.9647 10.943C11.1957 10.943 11.4102 11.0054 11.6082 11.13C11.8062 11.2547 11.9529 11.427 12.0482 11.647L12.9832 13.715H19.7922ZM6.35019 9.07305C6.54085 9.07305 6.71685 9.02171 6.87819 8.91905C7.03952 8.81638 7.16785 8.67705 7.26319 8.50105C7.35852 8.32505 7.40619 8.13071 7.40619 7.91805C7.40619 7.67605 7.34569 7.45788 7.22469 7.26355C7.10369 7.06921 6.94419 6.92988 6.74619 6.84555C6.54819 6.76121 6.34835 6.74105 6.14669 6.78505C5.94502 6.82905 5.76719 6.93171 5.61319 7.09305C5.45919 7.25438 5.36019 7.45238 5.31619 7.68705C5.27219 7.92171 5.29235 8.14905 5.37669 8.36905C5.46102 8.58905 5.59302 8.76138 5.77269 8.88605C5.95235 9.01071 6.14485 9.07305 6.35019 9.07305ZM6.36119 10.481C5.86252 10.481 5.40419 10.3362 4.98619 10.0465C4.56819 9.75688 4.26569 9.37371 4.07869 8.89705C3.89169 8.42038 3.84402 7.93088 3.93569 7.42855C4.02735 6.92621 4.24735 6.48988 4.59569 6.11955C4.94402 5.74921 5.36569 5.51088 5.86069 5.40455C6.35569 5.29821 6.83419 5.34588 7.29619 5.54755C7.75819 5.74921 8.12669 6.06638 8.40169 6.49905C8.67669 6.93171 8.81419 7.40471 8.81419 7.91805C8.81419 8.38005 8.70419 8.80721 8.48419 9.19955C8.26419 9.59188 7.96719 9.90355 7.59319 10.1345C7.21919 10.3655 6.80852 10.481 6.36119 10.481ZM15.6232 9.07305C15.8139 9.07305 15.9899 9.02171 16.1512 8.91905C16.3125 8.81638 16.4409 8.67705 16.5362 8.50105C16.6315 8.32505 16.6792 8.13071 16.6792 7.91805C16.6792 7.67605 16.6169 7.45788 16.4922 7.26355C16.3675 7.06921 16.208 6.92988 16.0137 6.84555C15.8194 6.76121 15.6195 6.74105 15.4142 6.78505C15.2089 6.82905 15.0292 6.93171 14.8752 7.09305C14.7212 7.25438 14.624 7.45238 14.5837 7.68705C14.5434 7.92171 14.5654 8.14905 14.6497 8.36905C14.734 8.58905 14.8642 8.76138 15.0402 8.88605C15.2162 9.01071 15.4105 9.07305 15.6232 9.07305ZM15.6342 10.481C15.1282 10.481 14.668 10.3362 14.2537 10.0465C13.8394 9.75688 13.5369 9.37371 13.3462 8.89705C13.1555 8.42038 13.1079 7.93088 13.2032 7.42855C13.2985 6.92621 13.5204 6.48988 13.8687 6.11955C14.217 5.74921 14.6387 5.51088 15.1337 5.40455C15.6287 5.29821 16.1072 5.34588 16.5692 5.54755C17.0312 5.74921 17.3979 6.06638 17.6692 6.49905C17.9405 6.93171 18.0762 7.40471 18.0762 7.91805C18.0762 8.38005 17.968 8.80721 17.7517 9.19955C17.5354 9.59188 17.2384 9.90355 16.8607 10.1345C16.483 10.3655 16.0742 10.481 15.6342 10.481Z"
        fill="#F5F4F3" />
</svg>
    