<svg width="22" height="22" viewBox="0 0 22 22" fill="none" xmlns="http://www.w3.org/2000/svg">
    <path
        d="M0.539062 13.9428H2.33206V19.5198C2.32473 19.5711 2.3284 19.6041 2.34306 19.6188C2.3504 19.6188 2.39073 19.6151 2.46406 19.6078H7.99706V21.4008H1.43006C1.13673 21.4228 0.909396 21.3421 0.748062 21.1588C0.608729 20.9974 0.542729 20.8251 0.550062 20.6418V13.9428H0.539062ZM0.748062 0.753761C0.909396 0.570429 1.1294 0.486095 1.40806 0.500761H7.99706V2.28276H2.40906C2.36506 2.28276 2.3394 2.28643 2.33206 2.29376C2.32473 2.30109 2.32473 2.34509 2.33206 2.42576V7.95876H0.539062L0.550062 1.43576C0.520729 1.14976 0.586729 0.922428 0.748062 0.753761ZM21.4391 1.43576V7.95876H19.6461V2.38176V2.29376H13.9811V0.500761H20.4271C20.7717 0.478762 21.0339 0.552095 21.2136 0.720762C21.3932 0.889427 21.4684 1.12776 21.4391 1.43576ZM20.6141 21.4008H13.9811V19.6078H19.6021C19.6167 19.6078 19.6296 19.6023 19.6406 19.5913C19.6516 19.5803 19.6534 19.5198 19.6461 19.4098V13.9428H21.4391L21.4281 20.5428C21.4427 20.8141 21.3694 21.0286 21.2081 21.1863C21.0467 21.3439 20.8487 21.4154 20.6141 21.4008Z"
        fill="#F5F4F3" />
</svg>
    