<svg width="13" height="12" viewBox="0 0 13 12" fill="none" xmlns="http://www.w3.org/2000/svg">
    <path
        d="M10.5691 0.173828L6.44934 1.3284L2.32632 0.173828L0.679688 0.636944V11.2693L2.32954 11.7324L6.45255 10.5778L10.5756 11.7324L12.2254 11.2693V0.636944L10.5691 0.173828ZM8.9225 8.1079L6.44934 7.41644L3.97617 8.1079V3.79835L6.44934 4.48981L8.9225 3.79835V8.1079Z"
        fill="#B7BABB" />
    <path
        d="M6.44934 2.25119V4.48958L2.32632 3.33501V11.729L0.679688 11.2691V0.636719L6.44934 2.25119ZM8.9225 9.03069L6.44934 8.33602V10.5744L10.5691 11.729V3.33501L8.9225 3.79813V9.03069Z"
        fill="white" />
    <path
        d="M10.5691 0.173828L12.219 0.636944L6.44934 2.25142L0.679688 0.636944L2.32632 0.173828L6.44934 1.3284L10.5691 0.173828ZM6.44934 7.41323L8.9225 8.1079V9.03091L6.44934 8.33624L3.97617 9.03091V8.1079L6.44934 7.41323Z"
        fill="#999999" />
</svg>
    