<svg width="16" height="10" viewBox="0 0 16 10" fill="none" xmlns="http://www.w3.org/2000/svg">
    <path
        d="M6.98031 0.671797L0.430312 7.2218C0.243646 7.4018 0.118646 7.61513 0.0553125 7.8618C-0.00802083 8.10846 -0.00802083 8.35346 0.0553125 8.5968C0.118646 8.84013 0.243646 9.0518 0.430312 9.2318C0.610312 9.41846 0.821979 9.54346 1.06531 9.6068C1.30865 9.67013 1.55365 9.67013 1.80031 9.6068C2.04698 9.54346 2.26031 9.4218 2.44031 9.2418L7.99031 3.7018L13.5403 9.2418C13.7203 9.4218 13.9336 9.54346 14.1803 9.6068C14.427 9.67013 14.672 9.67013 14.9153 9.6068C15.1586 9.54346 15.3703 9.41846 15.5503 9.2318C15.737 9.0518 15.862 8.84013 15.9253 8.5968C15.9886 8.35346 15.9886 8.10846 15.9253 7.8618C15.862 7.61513 15.737 7.4018 15.5503 7.2218L9.00031 0.671797C8.82031 0.48513 8.60698 0.36013 8.36031 0.296797C8.11365 0.233463 7.86698 0.233463 7.62031 0.296797C7.37365 0.36013 7.16031 0.48513 6.98031 0.671797Z"
        fill="#F5F4F3" />
</svg>
    