<svg width="20" height="21" viewBox="0 0 20 21" fill="none" xmlns="http://www.w3.org/2000/svg">
    <path
        d="M8.07219 15.4512C7.85219 15.5778 7.61719 15.6145 7.36719 15.5612C7.11719 15.5078 6.92219 15.3812 6.78219 15.1812C6.68219 15.0278 6.63219 14.8645 6.63219 14.6912V7.58117C6.63219 7.32784 6.72385 7.11451 6.90719 6.94117C7.09052 6.76784 7.31219 6.68117 7.57219 6.68117C7.75219 6.68117 7.91885 6.72451 8.07219 6.81117L14.1722 10.3712C14.3255 10.4578 14.4405 10.5728 14.5172 10.7162C14.5939 10.8595 14.6305 11.0128 14.6272 11.1762C14.6239 11.3395 14.5722 11.4912 14.4722 11.6312C14.3989 11.7445 14.2989 11.8345 14.1722 11.9012L8.07219 15.4512ZM7.82219 8.02117V14.2412L13.1722 11.1312L7.82219 8.02117ZM9.99219 2.31117C8.81885 2.31117 7.69885 2.53784 6.63219 2.99117C5.59885 3.43117 4.68385 4.04951 3.88719 4.84617C3.09052 5.64284 2.47219 6.55784 2.03219 7.59117C1.57885 8.65784 1.35219 9.77784 1.35219 10.9512C1.35219 12.1245 1.57885 13.2445 2.03219 14.3112C2.47219 15.3445 3.09052 16.2595 3.88719 17.0562C4.68385 17.8528 5.59885 18.4712 6.63219 18.9112C7.69885 19.3645 8.81885 19.5912 9.99219 19.5912C11.1655 19.5912 12.2855 19.3645 13.3522 18.9112C14.3855 18.4712 15.3005 17.8528 16.0972 17.0562C16.8939 16.2595 17.5122 15.3445 17.9522 14.3112C18.4055 13.2445 18.6322 12.1245 18.6322 10.9512C18.6322 9.77784 18.4055 8.65784 17.9522 7.59117C17.5122 6.55784 16.8939 5.64284 16.0972 4.84617C15.3005 4.04951 14.3855 3.43117 13.3522 2.99117C12.2855 2.53784 11.1655 2.31117 9.99219 2.31117ZM9.99219 0.951172C11.3455 0.951172 12.6422 1.21451 13.8822 1.74117C15.0822 2.24117 16.1439 2.95284 17.0672 3.87617C17.9905 4.79951 18.7022 5.86117 19.2022 7.06117C19.7289 8.30117 19.9922 9.59784 19.9922 10.9512C19.9922 12.3045 19.7289 13.6012 19.2022 14.8412C18.7022 16.0412 17.9905 17.1028 17.0672 18.0262C16.1439 18.9495 15.0822 19.6612 13.8822 20.1612C12.6422 20.6878 11.3455 20.9512 9.99219 20.9512C8.63885 20.9512 7.34219 20.6878 6.10219 20.1612C4.90219 19.6612 3.84052 18.9495 2.91719 18.0262C1.99385 17.1028 1.28219 16.0412 0.782187 14.8412C0.255521 13.6012 -0.0078125 12.3045 -0.0078125 10.9512C-0.0078125 9.59784 0.255521 8.30117 0.782187 7.06117C1.28219 5.86117 1.99385 4.79951 2.91719 3.87617C3.84052 2.95284 4.90219 2.24117 6.10219 1.74117C7.34219 1.21451 8.63885 0.951172 9.99219 0.951172Z"
        fill="#F5F4F3" />
</svg>
    