<svg width="22" height="23" viewBox="0 0 22 23" fill="none" xmlns="http://www.w3.org/2000/svg">
    <path d="M15.7442 6.61617L6.86719 10.9722C6.96252 11.2875 7.01019 11.6138 7.01019 11.9512C7.01019 12.3178 6.95519 12.6735 6.84519 13.0182L15.5902 17.5832C15.9055 17.0992 16.3162 16.7178 16.8222 16.4392C17.3429 16.1458 17.9039 15.9992 18.5052 15.9992C19.1359 15.9992 19.7225 16.1568 20.2652 16.4722C20.7932 16.7802 21.2112 17.1982 21.5192 17.7262C21.8345 18.2615 21.9922 18.8445 21.9922 19.4752C21.9922 20.1058 21.8345 20.6925 21.5192 21.2352C21.2112 21.7558 20.7932 22.1702 20.2652 22.4782C19.7225 22.7935 19.1359 22.9512 18.5052 22.9512C17.8745 22.9512 17.2915 22.7935 16.7562 22.4782C16.2282 22.1702 15.8102 21.7558 15.5022 21.2352C15.1869 20.6925 15.0292 20.1058 15.0292 19.4752C15.0292 19.3945 15.0329 19.3102 15.0402 19.2222L5.93219 14.4702C5.61685 14.7782 5.24835 15.0183 4.82669 15.1907C4.40502 15.363 3.96319 15.4492 3.50119 15.4492C2.86319 15.4492 2.27285 15.2878 1.73019 14.9652C1.20219 14.6572 0.784187 14.2392 0.476187 13.7112C0.153521 13.1685 -0.0078125 12.58 -0.0078125 11.9457C-0.0078125 11.3113 0.153521 10.7228 0.476187 10.1802C0.784187 9.65217 1.20219 9.23417 1.73019 8.92617C2.27285 8.60351 2.86319 8.44217 3.50119 8.44217C3.98519 8.44217 4.44352 8.53567 4.87619 8.72267C5.30885 8.90967 5.68652 9.16817 6.00919 9.49817L15.0292 5.07617C14.9852 4.8635 14.9632 4.64717 14.9632 4.42717C14.9632 3.7965 15.1209 3.20984 15.4362 2.66717C15.7442 2.14651 16.1622 1.73217 16.6902 1.42417C17.2329 1.10884 17.8195 0.951172 18.4502 0.951172C19.0809 0.951172 19.6639 1.10884 20.1992 1.42417C20.7272 1.73217 21.1452 2.14651 21.4532 2.66717C21.7685 3.20984 21.9262 3.7965 21.9262 4.42717C21.9262 5.05784 21.7685 5.64084 21.4532 6.17617C21.1452 6.70417 20.7272 7.12217 20.1992 7.43017C19.6639 7.74551 19.0809 7.90317 18.4502 7.90317C17.9149 7.90317 17.4089 7.78584 16.9322 7.55117C16.4702 7.33117 16.0742 7.01951 15.7442 6.61617Z" fill="#F5F4F3"/>
    </svg>
    