<svg width="22" height="22" viewBox="0 0 22 22" fill="none" xmlns="http://www.w3.org/2000/svg">
    <path
        d="M0.68875 13.4815L13.5257 0.644518C13.7677 0.395184 14.0556 0.228352 14.3892 0.144018C14.7229 0.0596848 15.0547 0.0596848 15.3847 0.144018C15.7147 0.228352 16.0007 0.395184 16.2427 0.644518L21.3027 5.70452C21.5521 5.94652 21.7189 6.23252 21.8032 6.56252C21.8876 6.89252 21.8876 7.22435 21.8032 7.55802C21.7189 7.89168 21.5521 8.17952 21.3027 8.42152L8.46575 21.2585C8.22375 21.5078 7.93592 21.6747 7.60225 21.759C7.26858 21.8433 6.93675 21.8433 6.60675 21.759C6.27675 21.6747 5.99075 21.5078 5.74875 21.2585L0.68875 16.1985C0.439417 15.9565 0.272583 15.6705 0.18825 15.3405C0.103917 15.0105 0.103917 14.6787 0.18825 14.345C0.272583 14.0113 0.439417 13.7235 0.68875 13.4815ZM1.85475 14.6475C1.80342 14.6988 1.77775 14.763 1.77775 14.84C1.77775 14.917 1.80342 14.9812 1.85475 15.0325L6.91475 20.0925C6.96608 20.1438 7.03025 20.1695 7.10725 20.1695C7.18425 20.1695 7.24842 20.1438 7.29975 20.0925L20.1367 7.25552C20.1881 7.20418 20.2137 7.14002 20.2137 7.06302C20.2137 6.98602 20.1881 6.92185 20.1367 6.87052L15.0767 1.81052C15.0254 1.75918 14.9612 1.73352 14.8842 1.73352C14.8072 1.73352 14.7431 1.75918 14.6917 1.81052L1.85475 14.6475ZM11.7327 12.8545C11.5714 12.7005 11.4907 12.508 11.4907 12.277C11.4907 12.046 11.5714 11.8498 11.7327 11.6885C11.8941 11.5272 12.0884 11.4465 12.3157 11.4465C12.5431 11.4465 12.7374 11.5272 12.8987 11.6885L14.6477 13.4375L13.4817 14.6035L11.7327 12.8545ZM16.1327 8.45452C15.9714 8.30052 15.8907 8.10802 15.8907 7.87702C15.8907 7.64602 15.9714 7.44985 16.1327 7.28852C16.2941 7.12718 16.4884 7.04652 16.7157 7.04652C16.9431 7.04652 17.1374 7.12718 17.2987 7.28852L19.0477 9.03752L17.8817 10.2035L16.1327 8.45452ZM7.33275 17.2545C7.17142 17.1005 7.09075 16.908 7.09075 16.677C7.09075 16.446 7.17142 16.2498 7.33275 16.0885C7.49408 15.9272 7.68842 15.8465 7.91575 15.8465C8.14308 15.8465 8.33742 15.9272 8.49875 16.0885L10.2477 17.8375L9.08175 19.0035L7.33275 17.2545ZM12.3377 9.05952C12.1764 8.89818 12.0957 8.70385 12.0957 8.47652C12.0957 8.24918 12.1764 8.05485 12.3377 7.89352C12.4991 7.73218 12.6934 7.65152 12.9207 7.65152C13.1481 7.65152 13.3424 7.73218 13.5037 7.89352L16.8477 11.2375L15.6817 12.4035L12.3377 9.05952ZM7.93775 13.4595C7.77642 13.2982 7.69575 13.1038 7.69575 12.8765C7.69575 12.6492 7.77642 12.4549 7.93775 12.2935C8.09908 12.1322 8.29342 12.0515 8.52075 12.0515C8.74808 12.0515 8.94242 12.1322 9.10375 12.2935L12.4477 15.6375L11.2817 16.8035L7.93775 13.4595Z"
        fill="#F5F4F3" />
</svg>
    