<svg width="22" height="22" viewBox="0 0 22 22" fill="none" xmlns="http://www.w3.org/2000/svg">
    <path
        d="M21.2112 6.61802H21.3982H21.2002H21.2112ZM6.27319 14.659V19.741L1.42219 17.134L1.46619 11.898L6.27319 14.659ZM2.17019 10.655L7.79119 7.47602V10.864L5.22819 12.415L2.17019 10.655ZM5.63519 7.06902V5.45201L7.05419 6.24402L5.63519 7.06902ZM10.1452 7.79502L9.22119 8.29002V6.47502C9.22119 6.39435 9.21385 6.33202 9.19919 6.28802V6.25502C9.20652 6.13035 9.17535 6.01302 9.10569 5.90302C9.03602 5.79302 8.94619 5.70868 8.83619 5.65001L6.33919 4.26402L10.1232 2.14102V7.63002C10.1232 7.68868 10.1305 7.74368 10.1452 7.79502ZM19.9682 7.89402V12.657L7.69219 19.708V14.681L19.9682 7.89402ZM11.5312 7.85002C11.5532 7.77668 11.5642 7.71068 11.5642 7.65202V2.14102L14.4242 3.74701L19.2642 6.65102L14.1932 9.44502L11.5312 7.85002ZM21.3982 6.55202C21.3982 6.51535 21.3909 6.48235 21.3762 6.45302C21.3689 6.43102 21.3615 6.40902 21.3542 6.38702C21.3395 6.32102 21.3065 6.26968 21.2552 6.23302L21.2002 6.16702C21.1782 6.13768 21.1415 6.10468 21.0902 6.06802L15.1392 2.53702L11.2012 0.326015C11.0912 0.267349 10.9757 0.238016 10.8547 0.238016C10.7337 0.238016 10.6145 0.267349 10.4972 0.326015L4.56819 3.62602L4.40319 3.74701C4.38119 3.76168 4.35919 3.78735 4.33719 3.82402L4.28219 3.89002V3.90102C4.26752 3.91568 4.25285 3.94868 4.23819 4.00002L4.21619 4.07701C4.20152 4.12102 4.19419 4.17602 4.19419 4.24202V7.85002L0.344187 10.05C0.234187 10.1087 0.148021 10.193 0.0856875 10.303C0.0233542 10.413 -0.0078125 10.5303 -0.0078125 10.655C-0.0078125 10.721 0.00685417 10.7907 0.0361875 10.864L-0.0078125 17.541C-0.0078125 17.673 0.0251875 17.7922 0.0911875 17.8985C0.157187 18.0048 0.248854 18.0873 0.366188 18.146L6.61419 21.545C6.63619 21.567 6.66185 21.5817 6.69119 21.589L6.72419 21.622L6.81219 21.644C6.85619 21.6587 6.91302 21.666 6.98269 21.666C7.05235 21.666 7.12019 21.655 7.18619 21.633L7.28519 21.589C7.31452 21.5817 7.34019 21.5707 7.36219 21.556L21.0572 13.669C21.1745 13.6103 21.2644 13.5278 21.3267 13.4215C21.389 13.3152 21.4202 13.1923 21.4202 13.053L21.3982 6.55202Z"
        fill="#F5F4F3" />
</svg>
    