<svg width="20" height="22" viewBox="0 0 20 22" fill="none" xmlns="http://www.w3.org/2000/svg">
    <path
        d="M9.1725 1.30392C9.1725 1.14259 9.22933 1.00692 9.343 0.896921C9.45667 0.786922 9.59783 0.731922 9.7665 0.731922H19.2045C19.3658 0.731922 19.507 0.788755 19.628 0.902422C19.749 1.01609 19.8095 1.14992 19.8095 1.30392V20.5979C19.8095 20.7593 19.749 20.8949 19.628 21.0049C19.507 21.1149 19.3658 21.1699 19.2045 21.1699H1.4175C1.24883 21.1699 1.10583 21.1131 0.9885 20.9994C0.871167 20.8858 0.8125 20.7519 0.8125 20.5979V10.8519C0.8125 10.6906 0.869333 10.5549 0.983 10.4449C1.09667 10.3349 1.2415 10.2799 1.4175 10.2799H8.8425C8.9305 10.2799 9.0075 10.2506 9.0735 10.1919C9.1395 10.1333 9.1725 10.0636 9.1725 9.98292V1.30392ZM18.0495 19.8389C18.1448 19.8389 18.2237 19.8096 18.286 19.7509C18.3483 19.6923 18.3795 19.6226 18.3795 19.5419V11.6549C18.3795 11.6036 18.3465 11.5578 18.2805 11.5174C18.2145 11.4771 18.1375 11.4569 18.0495 11.4569H14.6065C14.4378 11.4569 14.2948 11.4001 14.1775 11.2864C14.0602 11.1728 14.0015 11.0389 14.0015 10.8849V10.6869C14.0015 10.5256 14.0602 10.3899 14.1775 10.2799C14.2948 10.1699 14.4378 10.1149 14.6065 10.1149H18.0715C18.1668 10.1149 18.2457 10.0856 18.308 10.0269C18.3703 9.96826 18.4015 9.89859 18.4015 9.81792V2.38192C18.4015 2.30126 18.3685 2.23159 18.3025 2.17292C18.2365 2.11426 18.1595 2.08492 18.0715 2.08492H10.9325C10.8372 2.08492 10.7583 2.11426 10.696 2.17292C10.6337 2.23159 10.6025 2.30126 10.6025 2.38192V11.0609C10.6025 11.2149 10.5438 11.3488 10.4265 11.4624C10.3092 11.5761 10.1698 11.6329 10.0085 11.6329H2.5615C2.4735 11.6329 2.39833 11.6623 2.336 11.7209C2.27367 11.7796 2.2425 11.8493 2.2425 11.9299V19.5199C2.2425 19.6006 2.27367 19.6703 2.336 19.7289C2.39833 19.7876 2.4735 19.8169 2.5615 19.8169H8.8425C8.9305 19.8169 9.0075 19.7876 9.0735 19.7289C9.1395 19.6703 9.1725 19.6006 9.1725 19.5199V16.2859C9.1725 16.1319 9.23117 15.9981 9.3485 15.8844C9.46583 15.7708 9.60517 15.7139 9.7665 15.7139H9.9975C10.1588 15.7139 10.2982 15.7708 10.4155 15.8844C10.5328 15.9981 10.5915 16.1319 10.5915 16.2859V19.5419C10.5915 19.7399 10.6795 19.8389 10.8555 19.8389H18.0495Z"
        fill="#F5F4F3" />
</svg>
    